<?xml version="1.0" encoding="iso-8859-1"?>
<!-- Generator: Adobe Illustrator 21.0.2, SVG Export Plug-In . SVG Version: 6.00 Build 0)  -->
<svg version="1.1" xmlns="http://www.w3.org/2000/svg" xmlns:xlink="http://www.w3.org/1999/xlink" x="0px" y="0px"
	 viewBox="0 0 64 64" style="enable-background:new 0 0 64 64;" xml:space="preserve">
<g id="css">
</g>
<g id="mobile_development">
</g>
<g id="code">
</g>
<g id="hardware_programming">
</g>
<g id="python">
</g>
<g id="development">
	<g>
		<path d="M56.5311,33.7715c0.4252,1.3041,1.6392,2.2559,3.0847,2.2559c1.7949,0,3.2554-1.4609,3.2554-3.2559
			c0-1.7969-1.4604-3.2588-3.2554-3.2588c-1.4459,0-2.6602,0.9529-3.085,2.2588h-5.4828v-5.3779h5.9058
			c0.459,0,0.8589-0.3125,0.9702-0.7568l1.9532-7.8077c1.6711-0.1358,2.994-1.525,2.994-3.2323
			c0-1.7969-1.4604-3.2588-3.2554-3.2588c-1.7969,0-3.2583,1.4619-3.2583,3.2588c0,1.1776,0.6337,2.2018,1.5721,2.7745
			l-1.7567,7.0223h-5.125V8.3994C51.0479,4.3193,47.7271,1,43.645,1h-23.29c-4.082,0-7.4028,3.3193-7.4028,7.3994v15.9941h-5.125
			l-1.7542-7.0237c0.9371-0.5729,1.5696-1.5966,1.5696-2.7732c0-1.7969-1.4614-3.2588-3.2583-3.2588
			c-1.7949,0-3.2554,1.4619-3.2554,3.2588c0,1.7084,1.3247,3.0984,2.9974,3.2327l1.9498,7.8064
			c0.1113,0.4453,0.5112,0.7578,0.9702,0.7578h5.9058v5.3779H7.4693c-0.4248-1.3059-1.6392-2.2588-3.085-2.2588
			c-1.7949,0-3.2554,1.4619-3.2554,3.2588c0,1.7949,1.4604,3.2559,3.2554,3.2559c1.4454,0,2.6595-0.9517,3.0847-2.2559h5.4832
			v5.3779H7.0464c-0.459,0-0.8589,0.3125-0.9702,0.7578l-1.9498,7.8064c-1.6727,0.1342-2.9974,1.5242-2.9974,3.2327
			c0,1.7949,1.4604,3.2559,3.2554,3.2559c1.7969,0,3.2583-1.4609,3.2583-3.2559c0-1.1766-0.6325-2.2002-1.5696-2.7732l1.7542-7.0237
			h5.125v14.4482c0,0.0166,0.0024,0.0326,0.0025,0.0492c-0.0001,0.0043-0.0025,0.0079-0.0025,0.0123
			c0,0.0073,0.004,0.0133,0.0042,0.0206C13.0009,59.7236,16.3007,63,20.355,63h23.29c4.0543,0,7.3541-3.2764,7.3987-7.3203
			c0.0002-0.0073,0.0042-0.0132,0.0042-0.0206c0-0.0044-0.0024-0.008-0.0025-0.0123c0.0001-0.0166,0.0025-0.0326,0.0025-0.0492
			V41.1494h5.125l1.7567,7.0223c-0.9384,0.5727-1.5721,1.5969-1.5721,2.7745c0,1.7949,1.4614,3.2559,3.2583,3.2559
			c1.7949,0,3.2554-1.4609,3.2554-3.2559c0-1.7073-1.3229-3.0965-2.994-3.2323l-1.9532-7.8077
			c-0.1113-0.4443-0.5112-0.7568-0.9702-0.7568h-5.9058v-5.3779H56.5311z M59.6157,31.5127c0.6924,0,1.2554,0.5645,1.2554,1.2588
			c0,0.6924-0.563,1.2559-1.2554,1.2559c-0.6938,0-1.2583-0.5635-1.2583-1.2559C58.3574,32.0771,58.9219,31.5127,59.6157,31.5127z
			 M59.6157,13.3379c0.6924,0,1.2554,0.5645,1.2554,1.2588s-0.563,1.2588-1.2554,1.2588c-0.6938,0-1.2583-0.5645-1.2583-1.2588
			S58.9219,13.3379,59.6157,13.3379z M3.1289,14.5967c0-0.6943,0.563-1.2588,1.2554-1.2588c0.6938,0,1.2583,0.5645,1.2583,1.2588
			s-0.5645,1.2588-1.2583,1.2588C3.6919,15.8555,3.1289,15.291,3.1289,14.5967z M4.3843,34.0273
			c-0.6924,0-1.2554-0.5635-1.2554-1.2559c0-0.6943,0.563-1.2588,1.2554-1.2588c0.6938,0,1.2583,0.5645,1.2583,1.2588
			C5.6426,33.4639,5.0781,34.0273,4.3843,34.0273z M4.3843,52.2021c-0.6924,0-1.2554-0.5635-1.2554-1.2559
			c0-0.6943,0.563-1.2588,1.2554-1.2588c0.6938,0,1.2583,0.5645,1.2583,1.2588C5.6426,51.6387,5.0781,52.2021,4.3843,52.2021z
			 M60.8711,50.9463c0,0.6924-0.563,1.2559-1.2554,1.2559c-0.6938,0-1.2583-0.5635-1.2583-1.2559
			c0-0.6943,0.5645-1.2588,1.2583-1.2588C60.3081,49.6875,60.8711,50.252,60.8711,50.9463z M49.0479,31.7715h-3.3142
			c-0.1121-1.9254-0.6167-3.7434-1.4429-5.3779h4.7571V31.7715z M40.2852,40.9322c-0.1131-4.4765-3.782-8.0855-8.2852-8.0855
			c-4.5016,0-8.1693,3.6095-8.2819,8.0864c-2.1526-2.135-3.4891-5.092-3.4891-8.3569c0-6.4902,5.2803-11.7705,11.771-11.7705
			c6.4927,0,11.7744,5.2803,11.7744,11.7705C43.7744,35.8406,42.4379,38.7972,40.2852,40.9322z M14.9521,54.6592v-2.2606
			l9.9365-2.7501c0.4336-0.1201,0.7334-0.5146,0.7334-0.9639v-3.9109c1.6289,0.8558,3.4489,1.3875,5.3779,1.5272v8.3583H14.9521z
			 M25.7075,42.3447v-1.2021c0-3.4717,2.8228-6.2959,6.2925-6.2959c3.4717,0,6.2959,2.8242,6.2959,6.2959v1.2021
			c-0.4261,0.303-0.8827,0.6105-1.3572,0.9064c-1.5043,0.699-3.1736,1.1005-4.9387,1.1005c-1.8412,0-3.5781-0.4371-5.1317-1.1943
			C26.476,42.8901,26.0886,42.6161,25.7075,42.3447z M49.0479,10.3232v2.243l-9.9365,2.7501
			c-0.4336,0.1201-0.7334,0.5146-0.7334,0.9639v4.102c-1.629-0.855-3.4489-1.3864-5.3779-1.5259v-8.5331H49.0479z M43.0529,24.3936
			c-0.7628-1.0269-1.6616-1.9427-2.6749-2.7227V17.041l8.6699-2.3995v9.752H43.0529z M20.355,3h23.29
			c2.9533,0,5.3576,2.381,5.399,5.3232H14.956C14.9974,5.381,17.4017,3,20.355,3z M14.9521,10.3232H31v8.5331
			c-4.1148,0.2979-7.7258,2.4071-10.0501,5.5372h-5.9977V10.3232z M14.9521,26.3936h4.7601
			c-0.826,1.6345-1.3304,3.4525-1.4425,5.3779h-3.3176V26.3936z M14.9521,33.7715h3.3374c0.1672,1.9328,0.7267,3.7547,1.6116,5.3779
			h-4.949V33.7715z M21.2399,41.1494c0.6962,0.8724,1.4978,1.653,2.3822,2.3344v4.44l-8.6699,2.3995v-9.1739H21.2399z M43.645,61
			h-23.29c-2.6156,0-4.802-1.8688-5.2968-4.3408h33.8837C48.447,59.1312,46.2606,61,43.645,61z M49.0479,54.6592H33v-8.3583
			c3.9456-0.2855,7.4326-2.2318,9.7628-5.1515h6.285V54.6592z M49.0479,39.1494h-4.946c0.8851-1.6232,1.4449-3.4451,1.6121-5.3779
			h3.334V39.1494z"/>
		<path d="M32,22.6211c-2.4268,0-4.4014,1.9746-4.4014,4.4014S29.5732,31.4238,32,31.4238s4.4014-1.9746,4.4014-4.4014
			S34.4268,22.6211,32,22.6211z M32,29.4238c-1.3242,0-2.4014-1.0771-2.4014-2.4014S30.6758,24.6211,32,24.6211
			s2.4014,1.0771,2.4014,2.4014S33.3242,29.4238,32,29.4238z"/>
		<path d="M29.3276,6.7236h5.3481c0.5522,0,1-0.4473,1-1s-0.4478-1-1-1h-5.3481c-0.5522,0-1,0.4473-1,1
			S28.7754,6.7236,29.3276,6.7236z"/>
	</g>
</g>
<g id="update">
</g>
<g id="maintenance">
</g>
<g id="peformance_testing">
</g>
<g id="programming">
</g>
<g id="hacker">
</g>
<g id="web_programming">
</g>
<g id="html">
</g>
<g id="typing">
</g>
<g id="search_1_">
</g>
<g id="android">
</g>
<g id="coding">
</g>
<g id="file">
</g>
<g id="api">
</g>
<g id="java">
</g>
<g id="xml">
</g>
<g id="security">
</g>
<g id="algorithm">
</g>
<g id="php">
</g>
<g id="eror">
</g>
<g id="bug">
</g>
<g id="c_x2B__x2B_">
</g>
<g id="search">
</g>
<g id="binary">
</g>
<g id="database_sql">
</g>
</svg>
